<?xml version="1.0" encoding="utf-8"?>
<!-- Generator: Adobe Illustrator 23.0.4, SVG Export Plug-In . SVG Version: 6.00 Build 0)  -->
<svg version="1.1" id="Layer_1" xmlns="http://www.w3.org/2000/svg" xmlns:xlink="http://www.w3.org/1999/xlink" x="0px" y="0px"
	 viewBox="0 0 1000 1000" style="enable-background:new 0 0 1000 1000;" xml:space="preserve">
<style type="text/css">
	.st0{fill:#FF6F00;}
	.st1{fill:#FEFEFE;}
</style>
<g>
	<rect x="99.8" y="318.9" class="st0" width="800.4" height="362.1"/>
	<g>
		<g id="home---gcc">
			<g id="home" transform="translate(-220.000000, -15.000000)">
				<g id="header">
					<g id="top-header">
						<g id="logos_x2F_logo_x5F_negative" transform="translate(220.000000, 15.000000)">
							<g id="Group-13">
								<path id="Fill-3" class="st1" d="M774.3,533.3l6.7,13.3c-6.3,4.1-14.1,7.8-23.7,7.8c-17.4,0-27.8-9.3-27.8-30v-33.7h-15.6
									v-15.6h15.6v-30h17v30h29.6v15.2h-29.6v33.3c0,10.4,5.6,14.4,12.2,14.4C763.9,538.5,769.4,535.9,774.3,533.3z M219.1,445.2
									h91.5v17h-36.7v89.6h-18.1v-89.3h-36.7V445.2z M399.1,552.2v-107h17v107H399.1z"/>
								<path id="Fill-5" class="st1" d="M660.9,539.6c-15.9,0-24.4-11.9-24.4-25.9s8.5-25.9,24.4-25.9c14.4,0,24.4,11.9,24.4,25.9
									C685.4,527.8,675.4,539.6,660.9,539.6L660.9,539.6z M683.9,481.1l-0.7,0.7l-0.7-0.7c-5.2-5.2-13.3-8.5-21.9-8.5
									c-21.9,0-40.4,16.7-40.4,41.1c0,24.4,18.5,41.1,40.4,41.1c8.5,0,16.7-3.3,21.9-8.5l0.7-0.7l0.7,0.7l1.9,6.7h15.2v-78.5
									h-15.2L683.9,481.1z"/>
								<path id="Fill-7" class="st1" d="M471.7,539.6c-15.9,0-24.4-11.9-24.4-25.9s8.5-25.9,24.4-25.9c14.4,0,24.4,11.9,24.4,25.9
									C496.1,527.8,486.1,539.6,471.7,539.6L471.7,539.6z M494.6,481.1l-0.7,0.7l-0.7-0.7c-5.2-5.2-13.3-8.5-21.9-8.5
									c-21.9,0-40.4,16.7-40.4,41.1c0,24.4,18.1,41.1,40,41.1c8.5,0,16.7-3.3,21.9-8.5l0.7-0.7l0.7,0.7l1.9,6.7h15.2v-78.5h-15.2
									L494.6,481.1z"/>
								<path id="Fill-9" class="st1" d="M340.9,539.6c-15.9,0-24.4-11.9-24.4-25.9s8.5-25.9,24.4-25.9c14.4,0,24.4,11.9,24.4,25.9
									C365.4,527.8,355.4,539.6,340.9,539.6L340.9,539.6z M363.9,481.1l-0.7,0.7l-0.7-0.7c-5.2-5.2-13.3-8.5-21.9-8.5
									c-21.9,0-40.4,16.7-40.4,41.1c0,24.4,18.1,41.1,40,41.1c8.5,0,16.7-3.3,21.9-8.5l0.7-0.7l0.7,0.7l1.9,6.7h15.2v-78.5h-15.2
									L363.9,481.1z"/>
								<path id="Fill-11" class="st1" d="M568,539.6c-14.4,0-24.4-11.9-24.4-25.9s10-25.9,24.4-25.9c15.9,0,24.4,11.9,24.4,25.9
									C592.4,527.8,583.9,539.6,568,539.6 M568.7,472.6c-8.5,0-16.7,3.3-21.9,8.5l-0.7,0.7l-1.1-0.7v-35.9h-16.7V553h15.2l1.9-6.7
									l0.7-0.7l0.7,0.7c5.2,5.2,13.3,8.5,21.9,8.5c21.9,0,40.4-16.7,40.4-41.1C609.1,489.3,590.6,472.6,568.7,472.6"/>
							</g>
						</g>
					</g>
				</g>
			</g>
		</g>
	</g>
</g>
</svg>
